<svg width="400" height="500" viewBox="0 0 400 500" fill="none" xmlns="http://www.w3.org/2000/svg">
  <!-- Main D Shape with gradient -->
  <defs>
    <linearGradient id="deepGradient" x1="0%" y1="0%" x2="100%" y2="100%">
      <stop offset="0%" style="stop-color:#00E5FF;stop-opacity:1" />
      <stop offset="100%" style="stop-color:#2196F3;stop-opacity:1" />
    </linearGradient>
  </defs>
  
  <!-- Outer D -->
  <path d="M 230 120 L 230 280 C 230 320 260 360 320 360 C 360 360 390 330 400 300 L 400 120 L 340 120 L 340 160 C 320 140 295 130 270 130 C 240 130 230 145 230 160 L 230 120 Z" fill="url(#deepGradient)" stroke="url(#deepGradient)" stroke-width="8"/>
  
  <!-- Inner D -->
  <path d="M 280 170 L 280 270 C 280 290 295 310 320 310 C 345 310 360 295 360 270 L 360 170 C 360 160 350 150 330 150 C 305 150 285 160 280 170 Z" fill="#000000"/>
  
  <!-- Bottom curve/swoosh -->
  <path d="M 260 340 C 240 360 220 370 200 370 L 200 420 C 260 420 310 390 340 350 Z" fill="url(#deepGradient)" opacity="0.8"/>
</svg>
