<svg width="200" height="200" viewBox="0 0 200 200" fill="none" xmlns="http://www.w3.org/2000/svg">
  <defs>
    <linearGradient id="deepGradient" x1="0%" y1="0%" x2="100%" y2="100%">
      <stop offset="0%" style="stop-color:#00E5FF;stop-opacity:1" />
      <stop offset="100%" style="stop-color:#2196F3;stop-opacity:1" />
    </linearGradient>
  </defs>
  
  <!-- Letter D shape -->
  <path d="M 40 40 L 40 160 L 90 160 C 130 160 160 130 160 90 C 160 50 130 40 90 40 L 40 40 Z M 70 70 L 90 70 C 110 70 130 75 130 90 C 130 105 110 130 90 130 L 70 130 L 70 70 Z" fill="url(#deepGradient)"/>
  
  <!-- Swoosh accent -->
  <path d="M 140 140 C 150 150 160 155 170 155 L 170 170 C 150 170 135 165 125 155 Z" fill="url(#deepGradient)" opacity="0.6"/>
</svg>
